<?xml version="1.0" encoding="UTF-8" standalone="no"?>
<svg
   xmlns:dc="http://purl.org/dc/elements/1.1/"
   xmlns:cc="http://creativecommons.org/ns#"
   xmlns:rdf="http://www.w3.org/1999/02/22-rdf-syntax-ns#"
   xmlns:svg="http://www.w3.org/2000/svg"
   xmlns="http://www.w3.org/2000/svg"
   xmlns:sodipodi="http://sodipodi.sourceforge.net/DTD/sodipodi-0.dtd"
   xmlns:inkscape="http://www.inkscape.org/namespaces/inkscape"
   inkscape:version="1.0 (4035a4fb49, 2020-05-01)"
   sodipodi:docname="icon-lost.svg"
   id="svg875"
   version="1.1"
   viewBox="0 0 24 24"
   height="800px"
   width="800px">
  <metadata
     id="metadata881">
    <rdf:RDF>
      <cc:Work
         rdf:about="">
        <dc:format>image/svg+xml</dc:format>
        <dc:type
           rdf:resource="http://purl.org/dc/dcmitype/StillImage" />
        <dc:title></dc:title>
      </cc:Work>
    </rdf:RDF>
  </metadata>
  <defs
     id="defs879" />
  <sodipodi:namedview
     inkscape:current-layer="g873"
     inkscape:window-maximized="0"
     inkscape:window-y="163"
     inkscape:window-x="224"
     inkscape:cy="421.20852"
     inkscape:cx="416.16677"
     inkscape:zoom="0.459375"
     showgrid="false"
     id="namedview877"
     inkscape:window-height="759"
     inkscape:window-width="1541"
     inkscape:pageshadow="2"
     inkscape:pageopacity="0"
     guidetolerance="10"
     gridtolerance="10"
     objecttolerance="10"
     borderopacity="1"
     bordercolor="#666666"
     pagecolor="#ffffff" />
  <g
     id="g873"
     transform="translate(0 -1028.4)">
    <path
       style="fill:#3c80e7;fill-opacity:1"
       id="path869"
       fill="#e74c3c"
       transform="translate(0 1028.4)"
       d="m12 0c-4.4183 2.3685e-15 -8 3.5817-8 8 0 1.421 0.3816 2.75 1.0312 3.906 0.1079 0.192 0.221 0.381 0.3438 0.563l6.625 11.531 6.625-11.531c0.102-0.151 0.19-0.311 0.281-0.469l0.063-0.094c0.649-1.156 1.031-2.485 1.031-3.906 0-4.4183-3.582-8-8-8zm0 4c2.209 0 4 1.7909 4 4 0 2.209-1.791 4-4 4-2.2091 0-4-1.791-4-4 0-2.2091 1.7909-4 4-4z" />
    <path
       style="fill:#2b67c0;fill-opacity:1"
       transform="translate(0,1028.4)"
       sodipodi:nodetypes="ssssssssss"
       id="path871"
       fill="#c0392b"
       d="M 12,3 C 9.2386,3 7,5.2386 7,8 c 0,2.761 2.2386,5 5,5 2.761,0 5,-2.239 5,-5 0,-2.7614 -2.239,-5 -5,-5 z m 0,2 c 1.657,0 3,1.3431 3,3 0,1.6569 -1.199,3 -2.856,3 C 10.487,11 9,9.6569 9,8 9,6.3431 10.343,5 12,5 Z" />
  </g>
</svg>
